# xmcd
#
# Track frame offsets: 
#        150
#        12875
#        24322
#        34437
#        44012
#        54557
#        63940
#        77787
#        88910
#        101175
#        111805
#        122165
#        135992
#        147815
#        156757
#        174355
#        187532
#        201387
#        212392
#        222467
#
# Disc length: 3114 seconds
#
# Revision: 4
# Processed by: cddbd v1.5.2PL0 Copyright (c) Steve Scherf et al.
# Submitted via: ExactAudioCopyFreeDBPlugin 1.0
#
DISCID=180c2814
DTITLE=Various Artist - Country Fever [CD1)
DYEAR=1995
DGENRE=Country
TTITLE0=Susan Raye - L.A. International Airport [1971] 
TTITLE1=The Kendalls - Heaven's Just A Sin Away [1977] 
TTITLE2=Don Gibson - Sea Of Heartbreak [1961] 
TTITLE3=Ned Miller - From A Jack To A King [1962] 
TTITLE4=Billie Jo Spears - I'm So Lonesome I Could Cry [1973] 
TTITLE5=Roy Clark - Kiss An Angel Good Morning [1983] 
TTITLE6=Charlie Rich - Sittin' And Thinkin' [1964] 
TTITLE7=Jerry Wallace - Primrose Lane [1959] 
TTITLE8=Johnny Cash - I Walk The Line [1956] 
TTITLE9=Patsy Cline - Honky Tonk Merry Go Round [1956] 
TTITLE10=Willie Nelson - Funny How Times Slip Away [1965] 
TTITLE11=Lee Hazlewood - Suddenly Tennessee [1980] 
TTITLE12=Bonnie Guitar - Country Lady [1980] 
TTITLE13=Roy Orbison - It's Too Late [1957] 
TTITLE14=Marshall Tucker Band - Fire On The Mountain [1975] 
TTITLE15=George Morgan - Red Rose Of The Blue Side Of Town [1975] 
TTITLE16=Jerry Wallace - In The Misty Moonlight [1964] 
TTITLE17=Roger Miller - King Of The Road [1965] 
TTITLE18=Jerry Lee Lewis - I'm The Guilty One [1957] 
TTITLE19=Conway Twitty - It's Only Make Believe [1965] 
EXTD=
EXTT0=
EXTT1=
EXTT2=
EXTT3=
EXTT4=
EXTT5=
EXTT6=
EXTT7=
EXTT8=
EXTT9=
EXTT10=
EXTT11=
EXTT12=
EXTT13=
EXTT14=
EXTT15=
EXTT16=
EXTT17=
EXTT18=
EXTT19=
PLAYORDER=
